<svg xmlns="http://www.w3.org/2000/svg" viewBox="0 0 144.92 45.27"><defs><style>.cls-1{fill:#fff;}</style></defs><title>jotaele-logo-white</title><g id="Layer_2" data-name="Layer 2"><g id="Layer_1-2" data-name="Layer 1"><path class="cls-1" d="M4.61,11.57H11.9V37.16c0,4.8-3,8.11-7.87,8.11a9.55,9.55,0,0,1-4-.67V38.55a8,8,0,0,0,2.16.28,2.2,2.2,0,0,0,2.45-2.44ZM8.21,0A4.27,4.27,0,1,1,4,4.27,4.26,4.26,0,0,1,8.21,0Z"/><path class="cls-1" d="M39.55,23.47A12.34,12.34,0,0,1,26.88,36.15,12.37,12.37,0,0,1,14.21,23.47,12.32,12.32,0,0,1,26.88,10.85,12.3,12.3,0,0,1,39.55,23.47Zm-7.29,0c0-4-2.59-5.9-5.38-5.9s-5.38,1.87-5.38,5.9,2.65,6,5.38,6S32.26,27.51,32.26,23.47Z"/><path class="cls-1" d="M50.55,11.57H55.2V18H50.55v8.93c0,2,1.05,2.5,2.64,2.5a9.56,9.56,0,0,0,1.92-.24v6a8.8,8.8,0,0,1-3.8.67c-4.94,0-8-2.93-8-7.68V18H39.12V11.57h1.2c2.5,0,3.7-1.68,3.7-3.89V4.61h6.53Z"/><path class="cls-1" d="M63.79,21.65l5.62-.86c1.29-.2,1.73-.82,1.73-1.64,0-1.39-1.2-2.59-3.51-2.59a3.85,3.85,0,0,0-4.08,3.51l-6.33-1.3c.28-3.41,3.45-7.92,10.46-7.92,7.73,0,10.56,4.32,10.56,9.22V31.73a23.17,23.17,0,0,0,.29,3.7H72a11.65,11.65,0,0,1-.24-2.69A7.54,7.54,0,0,1,65,36.1c-5.23,0-8.25-3.46-8.25-7.25C56.74,24.63,59.86,22.23,63.79,21.65Zm7.35,4.42V25l-4.52.72c-1.53.24-2.68,1-2.68,2.64,0,1.25.81,2.45,2.83,2.45S71.14,29.76,71.14,26.07Z"/><path class="cls-1" d="M102.72,28.85a10.47,10.47,0,0,1-10.37,7.3c-6.19,0-11.62-4.52-11.62-12.34,0-7.25,5.24-12.19,11-12.19,7.1,0,11.08,4.89,11.08,12.09a9.89,9.89,0,0,1-.09,1.44H85.39a6.86,6.86,0,0,0,7,7,6.28,6.28,0,0,0,6.48-4.65Zm-4.56-7.34c-.1-3.32-2.26-5.91-6.34-5.91a6.21,6.21,0,0,0-6.28,5.91Z"/><path class="cls-1" d="M106.22,35.43V.67h4.51V35.43Z"/><path class="cls-1" d="M136.13,28.85a10.47,10.47,0,0,1-10.37,7.3c-6.19,0-11.62-4.52-11.62-12.34,0-7.25,5.24-12.19,11-12.19,7.11,0,11.09,4.89,11.09,12.09a11.56,11.56,0,0,1-.09,1.44H118.8a6.85,6.85,0,0,0,7,7,6.29,6.29,0,0,0,6.48-4.65Zm-4.56-7.34c-.1-3.32-2.26-5.91-6.34-5.91a6.21,6.21,0,0,0-6.29,5.91Z"/><rect class="cls-1" x="140.56" y="23.13" width="4.36" height="4.36"/><polygon class="cls-1" points="140.56 31.86 140.56 36.22 136.19 36.22 136.19 40.59 140.56 40.59 144.92 40.59 144.92 36.22 144.92 31.86 140.56 31.86"/></g></g></svg>